<?xml version="1.0" standalone="no"?>
<!DOCTYPE svg PUBLIC "-//W3C//DTD SVG 20010904//EN"
 "http://www.w3.org/TR/2001/REC-SVG-20010904/DTD/svg10.dtd">
<svg version="1.0" xmlns="http://www.w3.org/2000/svg"
 width="500.000000pt" height="500.000000pt" viewBox="0 0 500.000000 500.000000"
 preserveAspectRatio="xMidYMid meet">

<g transform="translate(0.000000,500.000000) scale(0.100000,-0.100000)"
fill="#000000" stroke="none">
<path d="M2482 4295 c-141 -31 -278 -117 -372 -234 -47 -59 -92 -141 -105
-193 -5 -19 -15 -29 -37 -33 -44 -10 -96 -61 -108 -105 -7 -25 -7 -72 -2 -133
12 -127 43 -171 137 -191 24 -5 36 -18 59 -62 16 -30 49 -77 73 -104 23 -26
43 -50 43 -51 0 -2 -40 -3 -89 -1 -159 6 -208 -22 -271 -152 -67 -139 -120
-414 -106 -549 13 -117 76 -183 216 -228 49 -16 72 -29 82 -47 19 -37 94 -99
155 -129 l55 -27 -28 -20 c-16 -12 -58 -44 -93 -73 l-65 -51 -40 21 c-56 28
-180 35 -263 13 -34 -8 -98 -33 -141 -55 -136 -69 -141 -90 -24 -116 84 -19
203 -65 241 -93 l23 -19 -52 -33 c-66 -42 -90 -81 -90 -142 0 -27 -2 -48 -5
-48 -3 0 -25 10 -48 22 -34 18 -58 23 -127 23 -73 0 -93 -4 -141 -28 -70 -34
-133 -101 -184 -192 -90 -164 -152 -231 -278 -300 -37 -20 -67 -43 -67 -51 0
-18 1 -18 95 12 117 38 215 36 370 -6 203 -54 324 -34 421 72 23 24 49 65 58
90 l18 46 47 -49 c45 -46 57 -52 116 -52 6 0 32 3 58 6 l49 7 -8 -33 c-11 -50
-49 -130 -98 -207 -73 -112 -62 -125 74 -86 102 29 167 60 225 106 45 36 115
133 115 160 0 15 11 19 68 25 158 14 244 28 367 60 575 148 1047 532 1209 983
46 130 37 152 -89 215 -149 74 -320 119 -500 133 -79 6 -96 11 -140 39 -27 18
-89 52 -137 76 l-86 43 -5 50 c-7 76 -28 159 -44 178 -13 14 -10 17 29 23 226
34 435 131 563 259 66 65 91 115 106 203 16 97 -1 175 -47 221 -31 31 -39 34
-79 30 -29 -4 -61 -17 -92 -40 l-48 -34 -24 28 c-18 23 -30 28 -55 26 -37 -4
-54 -33 -63 -107 -5 -44 -10 -53 -42 -74 -45 -30 -117 -67 -130 -67 -5 0 8 26
29 58 22 32 49 83 60 113 19 48 27 57 72 79 77 38 90 69 86 201 -4 89 -8 112
-28 144 -22 35 -83 74 -120 75 -8 0 -31 29 -50 63 -55 98 -171 207 -271 255
-139 67 -288 87 -427 57z m337 -65 c61 -22 195 -103 221 -135 7 -9 -12 -4 -51
14 -100 45 -183 62 -322 68 -180 8 -342 -23 -456 -87 -35 -20 -35 -19 10 23
55 51 152 104 234 129 86 26 275 19 364 -12z m-84 -101 c144 -17 271 -66 350
-135 l30 -26 -30 20 c-149 97 -369 139 -589 112 -157 -19 -255 -53 -352 -125
l-49 -36 45 42 c81 74 215 129 365 149 89 11 130 11 230 -1z m-130 -129 c-3
-5 -12 -10 -19 -10 -8 0 -50 -18 -95 -41 -160 -80 -245 -188 -322 -408 -31
-90 -33 -93 -42 -65 -5 16 -10 83 -11 149 -1 112 1 124 27 177 36 73 99 121
221 165 84 31 254 54 241 33z m689 -162 c30 -31 33 -39 39 -120 7 -89 0 -127
-30 -160 -32 -36 -42 -22 -36 50 5 58 -3 141 -23 235 -8 37 10 35 50 -5z
m-1318 -186 c0 -81 5 -149 13 -166 6 -16 10 -30 8 -32 -7 -7 -52 23 -70 47
-25 34 -36 183 -17 229 11 27 44 60 60 60 3 0 5 -62 6 -138z m1119 118 c43
-47 21 -160 -37 -188 -67 -32 -121 55 -88 142 23 62 89 86 125 46z m-115 -280
c23 -43 -20 -92 -60 -70 -37 20 -18 90 25 90 14 0 29 -8 35 -20z m633 -19 c53
-20 74 -141 42 -248 -18 -61 -82 -135 -169 -197 -77 -55 -184 -109 -202 -102
-26 10 -55 88 -71 194 -14 100 -14 107 2 117 9 5 40 26 68 45 49 33 52 38 62
98 15 82 28 94 53 52 11 -18 23 -47 26 -65 4 -18 15 -40 26 -50 19 -17 19 -17
14 32 -6 47 -5 50 27 74 27 21 86 56 96 59 1 0 13 -4 26 -9z m-442 -347 c6
-43 22 -112 35 -153 14 -40 23 -75 22 -76 -9 -8 -151 -38 -209 -44 -58 -6 -70
-5 -73 8 -2 9 -10 40 -16 69 -18 80 -32 64 -28 -33 2 -64 0 -86 -10 -90 -8 -3
-53 -5 -101 -5 l-87 0 -99 85 c-93 80 -115 95 -115 77 0 -24 88 -122 163 -183
l48 -38 -40 -20 c-49 -26 -94 -78 -132 -159 -25 -52 -33 -61 -47 -53 -9 5 -57
50 -106 100 -82 82 -114 104 -99 66 3 -10 -2 -15 -17 -15 -34 0 -162 20 -199
32 -30 9 -33 13 -27 40 16 81 118 288 187 379 l16 21 49 -30 c125 -77 316
-110 463 -78 84 18 180 60 247 108 39 27 154 80 161 74 2 -1 8 -38 14 -82z
m-231 31 c0 -12 -109 -58 -178 -76 -89 -22 -181 -24 -274 -5 -62 14 -184 63
-175 72 2 2 30 -5 62 -16 94 -32 220 -44 325 -31 69 9 176 36 238 60 1 1 2 -1
2 -4z m-773 -19 c3 -3 -9 -28 -26 -55 l-32 -50 -77 35 c-42 20 -83 38 -89 41
-23 9 -14 21 25 32 36 10 188 8 199 -3z m-155 -98 c43 -16 78 -31 78 -32 0 -2
-15 -37 -34 -77 -18 -41 -44 -107 -57 -147 l-23 -72 -10 32 c-9 27 -22 36 -80
60 -38 15 -75 28 -83 28 -7 0 -13 6 -13 13 0 21 45 148 69 196 26 49 24 49
153 -1z m-132 -281 c43 -21 45 -24 42 -62 -4 -54 -28 -135 -47 -162 -9 -13
-26 -23 -39 -23 -56 0 -79 84 -56 205 14 75 24 79 100 42z m1110 -13 c6 -14
10 -27 10 -28 0 -2 -22 -6 -49 -10 -27 -3 -54 -13 -60 -20 -10 -12 -22 -7 -73
27 l-60 42 74 6 c149 11 148 11 158 -17z m-70 -156 c193 -133 290 -220 290
-261 0 -37 -72 -109 -132 -132 -75 -28 -111 -16 -184 61 -52 55 -76 71 -155
105 -119 51 -199 99 -199 119 0 22 57 130 83 159 32 35 78 61 107 61 16 0 86
-42 190 -112z m94 66 c3 -9 6 -29 6 -45 l0 -29 -35 22 c-32 22 -44 46 -28 61
12 13 51 7 57 -9z m-874 -20 c47 -8 101 -14 121 -14 29 0 43 -8 78 -45 24 -25
40 -49 36 -53 -3 -4 -57 -9 -119 -10 -209 -7 -320 46 -275 130 9 16 17 19 42
13 18 -3 70 -13 117 -21z m-195 -127 c-4 -24 -2 -78 4 -121 6 -44 9 -81 6 -84
-9 -9 -87 22 -126 50 -48 34 -68 65 -76 113 l-6 37 26 -17 c54 -35 134 -11
153 47 11 36 25 18 19 -25z m110 -23 c54 -17 239 -23 313 -10 39 7 42 6 42
-14 0 -11 11 -32 25 -45 20 -21 34 -25 79 -25 39 0 68 -7 102 -25 l47 -25 -46
6 c-57 8 -62 -7 -10 -25 l37 -14 -63 -19 c-51 -16 -75 -31 -121 -76 -53 -52
-71 -85 -96 -171 -3 -9 -8 -10 -17 -3 -7 6 -60 34 -117 62 -133 66 -164 91
-194 153 -34 69 -61 247 -38 247 4 0 30 -7 57 -16z m420 -34 c3 -5 1 -10 -4
-10 -6 0 -11 5 -11 10 0 6 2 10 4 10 3 0 8 -4 11 -10z m774 -47 c2 -2 -3 -3
-11 -3 -9 0 -19 7 -22 16 -6 15 -4 15 11 3 10 -7 20 -15 22 -16z m71 -105
c109 -169 210 -417 259 -636 l28 -123 -51 -46 c-78 -70 -248 -179 -381 -243
-292 -142 -574 -208 -850 -197 -199 7 -233 17 -277 75 -19 26 -42 58 -51 72
l-16 26 51 18 c36 12 70 36 109 75 55 55 117 155 101 164 -4 3 -31 12 -61 21
-75 22 -188 21 -250 -3 l-50 -19 -5 37 c-20 132 -21 122 27 187 60 79 217 230
296 283 70 48 83 47 133 -6 21 -23 23 -35 28 -182 5 -152 6 -158 38 -223 54
-111 142 -168 258 -168 92 0 183 57 200 126 7 27 16 30 33 10 27 -33 114 -60
191 -60 130 1 232 67 285 185 24 55 27 70 23 143 -3 57 -11 94 -27 124 -57
111 -162 175 -286 176 -66 1 -105 -12 -196 -61 -3 -2 -9 19 -12 46 -6 50 -36
121 -65 154 -8 9 -12 20 -9 23 3 4 35 -23 69 -59 70 -72 119 -93 186 -81 55
10 125 48 159 88 28 31 56 91 52 112 -8 45 19 28 61 -38z m276 28 c101 -22
199 -53 287 -93 109 -50 96 -59 -15 -11 -120 52 -294 96 -414 104 -52 4 -97
12 -101 17 -8 14 151 2 243 -17z m-855 -82 c58 -52 95 -168 84 -256 -8 -58
-54 -129 -102 -159 -21 -13 -61 -25 -97 -29 l-61 -7 40 -17 c33 -15 47 -16 85
-8 56 13 63 7 96 -82 41 -114 29 -172 -41 -206 -116 -56 -251 0 -307 127 -24
53 -26 73 -31 246 -3 104 -1 203 4 221 12 43 56 108 93 137 72 56 193 73 237
33z m417 -189 c28 -9 54 -20 57 -25 3 -5 -13 -3 -36 5 -86 31 -200 11 -272
-46 -22 -18 -38 -26 -35 -18 6 19 92 77 132 88 47 14 97 13 154 -4z m3 -118
c74 -49 98 -129 63 -203 -80 -168 -334 -82 -300 101 8 38 57 102 90 115 42 17
112 11 147 -13z m-1207 -44 c47 -22 36 -35 -16 -17 -78 27 -222 8 -321 -43
-16 -8 -36 -12 -45 -10 -24 6 109 66 183 83 70 16 150 11 199 -13z m-130 -370
l6 -78 -40 -39 c-21 -22 -41 -38 -44 -35 -12 11 -24 132 -16 153 8 22 64 76
79 76 5 0 11 -35 15 -77z m338 -62 c9 -3 -29 -6 -85 -6 -122 0 -156 -14 -257
-109 -36 -33 -56 -50 -45 -36 70 90 146 145 216 159 43 9 137 4 171 -8z m-573
-26 c94 -33 137 -96 106 -156 -14 -27 -14 -28 14 -34 58 -13 63 -117 8 -176
-31 -33 -104 -61 -171 -66 -59 -5 -61 -4 -77 25 -15 27 -25 31 -90 42 -53 9
-89 10 -129 2 -30 -5 -56 -9 -58 -7 -2 1 13 13 33 25 38 24 109 106 120 140 4
11 -4 38 -19 66 l-25 47 -34 -36 c-18 -20 -55 -76 -81 -123 -47 -87 -121 -184
-139 -184 -5 0 6 17 25 38 45 50 85 110 138 207 24 44 63 99 87 122 76 74 197
102 292 68z m421 -344 c0 -13 -69 -21 -96 -11 -13 5 -24 11 -24 13 0 1 27 3
60 4 33 1 60 -2 60 -6z"/>
</g>
</svg>
